<svg width="76" height="82" fill="none" xmlns="http://www.w3.org/2000/svg"><g clip-path="url(#clip0_2_78)" filter="url(#filter0_d_2_78)" fill-rule="evenodd" clip-rule="evenodd" fill="#118DA8"><path d="M26.426 68.528c-6.4-1.796-13.1-2.702-19.6-3.532-1.4-.174-2.7.797-2.8 2.165-.2 1.369.8 2.62 2.1 2.795 6.3.799 12.8 1.654 18.9 3.383 1.3.375 2.7-.397 3.1-1.725.4-1.327-.4-2.71-1.7-3.086zm19.399-25.463c-10.3-10.511-21.9-19.67-32-30.462-.9-1.008-2.5-1.062-3.5-.121-1 .942-1.1 2.526-.1 3.534 10.1 10.824 21.7 20.012 32 30.554 1 .984 2.6.998 3.6.03.9-.967 1-2.551 0-3.535zM65.126 2.636l.9 18.049c0 1.378 1.2 2.442 2.6 2.375 1.4-.068 2.4-1.241 2.4-2.62l-.9-18.076a2.564 2.564 0 00-2.7-2.36c-1.3.075-2.4 1.255-2.3 2.632z"/></g><defs><clipPath id="clip0_2_78"><path fill="#fff" transform="translate(4)" d="M0 0h68v74H0z"/></clipPath><filter id="filter0_d_2_78" x="0" y="0" width="76" height="82" filterUnits="userSpaceOnUse" color-interpolation-filters="sRGB"><feFlood flood-opacity="0" result="BackgroundImageFix"/><feColorMatrix in="SourceAlpha" values="0 0 0 0 0 0 0 0 0 0 0 0 0 0 0 0 0 0 127 0" result="hardAlpha"/><feOffset dy="4"/><feGaussianBlur stdDeviation="2"/><feComposite in2="hardAlpha" operator="out"/><feColorMatrix values="0 0 0 0 0 0 0 0 0 0 0 0 0 0 0 0 0 0 0.25 0"/><feBlend in2="BackgroundImageFix" result="effect1_dropShadow_2_78"/><feBlend in="SourceGraphic" in2="effect1_dropShadow_2_78" result="shape"/></filter></defs></svg>